<svg xmlns="http://www.w3.org/2000/svg" version="1.1" viewBox="-5.0 -10.0 110.0 135.0">
 <path d="m92.566 56.695c-1.543-22.23-15.777-37.723-29.504-49.949-2.625-2.3242-6.582-2.3281-9.2109 0.003906-9.4375 8.4141-20.309 19.508-25.879 33.863l0.003906-15.039c0-4.0703-3.3125-7.3828-7.3828-7.3828s-7.3828 3.3125-7.3828 7.3828v36.684c-3.6406 2.457-5.8711 6.6055-5.8711 11.02 0 7.3203 5.9453 13.277 13.254 13.277 4.2852 0 8.0898-2.0469 10.52-5.207 6.2969 8.7031 16.145 13.648 27.352 13.648 9.6602 0 18.445-3.7109 24.734-10.453 6.6797-7.1602 10.094-17.309 9.3672-27.848zm-71.973 26.965c-5.7148 0-10.363-4.6562-10.363-10.383 0-3.6758 1.9766-7.1133 5.1562-8.9727 0.44141-0.26172 0.71484-0.73438 0.71484-1.25v-37.48c0-2.4766 2.0156-4.4922 4.4883-4.4922 2.4766 0 4.4883 2.0156 4.4883 4.4922v37.48c0 0.51562 0.27344 0.98828 0.71484 1.25 3.1953 1.8672 5.1797 5.3086 5.1797 8.9727 0.003906 5.7266-4.6562 10.383-10.379 10.383zm11.363-26.434c0.046875-0.61719 0.10156-1.2227 0.16797-1.8359 0.4375-0.29297 0.82422-0.60547 1.2031-0.90625 1.1719-0.9375 2.0938-1.6836 4.3008-1.6836 2.0273 0 3.0391 0.76562 4.3164 1.7383 1.4258 1.082 3.0391 2.3125 5.9922 2.3125 3.0312 0 4.6836-1.2305 6.1406-2.3164 1.3008-0.96875 2.3281-1.7344 4.3828-1.7344 2.0625 0 3.0938 0.76562 4.3984 1.7383 1.457 1.082 3.1055 2.3125 6.125 2.3125 2.9688 0 4.582-1.2305 6.0078-2.3164 1.2734-0.96875 2.2773-1.7344 4.3008-1.7344 2.2305 0 3.1562 0.74609 4.3281 1.6914 0.37109 0.29687 0.74609 0.60547 1.1758 0.89453 0.066406 0.61328 0.125 1.2188 0.16797 1.832 0.60547 8.7695-2.2578 17.035-7.8555 22.672-4.8477 4.9062-11.297 7.5-18.645 7.5-7.3516 0-13.797-2.5938-18.648-7.5039-5.6016-5.6328-8.4609-13.898-7.8594-22.66zm49.121 25.344c-5.7344 6.1484-13.77 9.5352-22.617 9.5352-10.691 0-20.016-4.918-25.715-13.5 0.3125-0.71094 0.55469-1.4492 0.74219-2.2188 1.2031 2.0156 2.6289 3.8789 4.2695 5.5352 5.4023 5.4688 12.562 8.3594 20.703 8.3594 8.1406 0 15.301-2.8906 20.699-8.3555 6.1875-6.2266 9.3516-15.305 8.6875-24.914-0.066406-0.89453-0.15234-1.7656-0.26562-2.6641-0.058593-0.45703-0.32422-0.85938-0.72656-1.082-0.50391-0.28125-0.94922-0.64453-1.4219-1.0234-1.2891-1.0391-2.8906-2.332-6.1445-2.332-3 0-4.625 1.2344-6.0547 2.3281-1.2656 0.96094-2.2617 1.7227-4.2539 1.7227-2.0625 0-3.0938-0.76953-4.3984-1.7383-1.457-1.082-3.1055-2.3125-6.125-2.3125-3.0156 0-4.6602 1.2266-6.1133 2.3086-1.3047 0.97266-2.3359 1.7422-4.4102 1.7422-1.9805 0-2.9766-0.76172-4.2422-1.7227-1.4375-1.0938-3.0625-2.3281-6.0664-2.3281-3.2227 0-4.8242 1.2852-6.1133 2.3164-0.48047 0.38672-0.93359 0.75-1.4453 1.0352-0.40234 0.22266-0.67578 0.62891-0.73438 1.0859-0.11328 0.89844-0.19922 1.7734-0.26562 2.6719-0.14453 2.0898-0.097656 4.1484 0.11328 6.1602-0.38672-0.32813-0.78516-0.64063-1.2109-0.92578l0.007812-11.102c3.3672-18.465 16.621-32.273 27.801-42.242 1.5273-1.3555 3.8359-1.3594 5.3633-0.003906 13.289 11.84 27.066 26.797 28.539 47.992 0.67187 9.7383-2.4609 19.094-8.6016 25.672zm-29.465-3.5 11.207-19.414c0.39844-0.69141 1.2852-0.92969 1.9766-0.52734 0.69141 0.39844 0.92969 1.2812 0.53125 1.9766l-11.207 19.414c-0.26953 0.46484-0.75391 0.72266-1.2539 0.72266-0.24609 0-0.49219-0.0625-0.72266-0.19141-0.69141-0.40234-0.92969-1.2891-0.53125-1.9805zm0.074219-10.859c2.4297 0 4.4023-1.9766 4.4023-4.4023 0-2.4297-1.9766-4.4023-4.4023-4.4023-2.4297 0-4.4023 1.9766-4.4023 4.4023 0 2.4258 1.9766 4.4023 4.4023 4.4023zm0-5.918c0.83203 0 1.5117 0.67969 1.5117 1.5117 0 0.83203-0.67578 1.5117-1.5117 1.5117-0.83203 0-1.5117-0.67969-1.5117-1.5117 0.003907-0.83203 0.67969-1.5117 1.5117-1.5117zm9.1406 14.094c0 2.4297 1.9766 4.4023 4.4023 4.4023 2.4414 0 4.4258-1.9766 4.4258-4.4023 0-2.4414-1.9844-4.4258-4.4258-4.4258-2.4258 0-4.4023 1.9844-4.4023 4.4258zm5.9375 0c0 0.83203-0.6875 1.5117-1.5312 1.5117-0.83203 0-1.5117-0.67969-1.5117-1.5117 0-0.84766 0.67969-1.5312 1.5117-1.5312 0.84375-0.003907 1.5312 0.68359 1.5312 1.5312zm-44.727-9.9531v-23.824c0-0.79688-0.64844-1.4453-1.4453-1.4453-0.80078 0-1.4453 0.64844-1.4453 1.4453v23.82c-3.1797 0.66797-5.5703 3.4805-5.5703 6.8438 0 3.8711 3.1484 7.0195 7.0195 7.0195s7.0195-3.1484 7.0195-7.0195c-0.007813-3.3594-2.3984-6.1719-5.5781-6.8398zm-1.4453 10.969c-2.2734 0-4.125-1.8516-4.125-4.1289 0-2.2656 1.8516-4.1055 4.125-4.1055s4.125 1.8398 4.125 4.1055c0 2.2812-1.8516 4.1289-4.125 4.1289z"/>
<text x="0.0" y="117.5" font-size="5.0" font-weight="bold" font-family="Arbeit Regular, Helvetica, Arial-Unicode, Arial, Sans-serif" fill="#000000">Created by hanis tusiyani</text><text x="0.0" y="122.5" font-size="5.0" font-weight="bold" font-family="Arbeit Regular, Helvetica, Arial-Unicode, Arial, Sans-serif" fill="#000000">from Noun Project</text></svg>