<svg xmlns="http://www.w3.org/2000/svg" viewBox="0 0 64 80" x="0px" y="0px"><defs><style>.cls-1{stroke-width:0px;}</style></defs><path class="cls-1" d="M21.19189,41.00098c1.92385-.45024,4.67042.04915,5.88523.82045,1.1509.55259,2.4551,1.17857,4.93264,1.17857,4.64859.035,4.674-2.11645,8.99998-2.16023,2.02346.00008,2.97072.45516,4.0674.9825,1.14893.55176,2.45117,1.17773,4.92285,1.17773,2.10107,0,3.36475-.44727,4.41748-.93066,1.17691-.56848.37708-2.34465-.83501-1.81834-.82417.37888-1.78023.749-3.58247.749-2.01611,0-2.96143-.4541-4.05664-.98047-1.15039-.55273-2.45459-1.17969-4.93359-1.17969-4.64853-.03502-4.67403,2.11646-8.99998,2.16023-4.32617-.04364-4.35152-2.19543-9.00004-2.16016-1.12718.09796-3.12662-.19961-2.99129,1.37097.10605.54204.62558.89361,1.17344.79009Z"/><path class="cls-1" d="M59,31c-4.6499-.03419-4.67305,2.11586-8.99998,2.16024-4.31699-.04557-4.34553-2.1955-8.99027-2.16016-4.64836-.03427-4.67413,2.11579-8.99996,2.16016-4.32634-.04452-4.3514-2.1948-9.00004-2.16016-1.12863.09033-3.12557-.19411-2.99129,1.37095.10606.54206.62559.89655,1.17344.79011,1.92514-.44347,4.66949.04427,5.88523.82047,1.1509.55258,2.4551,1.17856,4.93264,1.17856s3.78174-.62598,4.93262-1.17871c1.09717-.52637,2.04492-.98145,4.06738-.98145,2.02344,0,2.9707.45508,4.06738.98242,1.14893.55176,2.45117,1.17773,4.92285,1.17773,2.47754,0,3.78174-.62598,4.93262-1.17871.89636-.43005,1.70288-.80804,3.06738-.93359v13.6723c-1.84607.14258-2.94849.66559-3.93262,1.13824-1.09717.52637-2.04492.98145-4.06738.98145-2.01611,0-2.96143-.4541-4.05664-.98047-1.15039-.55273-2.45459-1.17969-4.93359-1.17969-2.47754,0-3.78174.62598-4.93262,1.17871-1.09717.52637-2.04492.98145-4.06738.98145s-2.97021-.45508-4.06738-.98145c-1.15088-.55273-2.45508-1.17871-4.93262-1.17871-1.13311.1025-3.12676-.20075-2.99082,1.37398.10654.54203.62949.89262,1.17442.78813,1.92193-.45698,4.6699.05233,5.88377.81947,1.1509.5526,2.4551,1.17858,4.93264,1.17858s3.78174-.62598,4.93262-1.17871c1.09717-.52637,2.04492-.98145,4.06738-.98145,4.32316.04314,4.34846,2.19422,8.99025,2.16008,4.14831.04023,4.54167-1.69519,7.99995-2.11233.00003.0001.00003,9.27256.00003,9.27256H21c-1.29872.0095-1.32486,1.9822.00006,1.99999-.00006.00001,37.99994.00001,37.99994.00001.55225,0,1-.44727,1-1v-27c0-.55273-.44775-1-1-1Z"/><path class="cls-1" d="M16,4H5c-.55225,0-1,.44727-1,1v54c0,.55273.44775,1,1,1h11c.55225,0,1-.44727,1-1V5c0-.55273-.44775-1-1-1ZM6,6h9v5h-2c-.55225,0-1,.44727-1,1s.44775,1,1,1h2v4.66699h-4c-1.31595.02764-1.31476,1.9747.00004,2-.00004,0,3.99996,0,3.99996,0v4.66602h-2c-1.31584.02498-1.31398,1.97654.00004,2-.00004,0,1.99996,0,1.99996,0v4.66699h-4c-.55225,0-1,.44727-1,1s.44775,1,1,1h4v4.66699h-2c-1.31336.01909-1.31436,1.97987.00004,2-.00004,0,1.99996,0,1.99996,0v4.66602h-4c-.55225,0-1,.44727-1,1s.44775,1,1,1h4v4.66699s-2,0-2,0c-1.3109.01308-1.31474,1.98328.00005,1.99999-.00005,0,1.99995,0,1.99995,0v5H6V6Z"/><path class="cls-1" d="M41.00977,28c.55225,0,1-.44727,1-1V10.41406l2.29297,2.29297c.92607.92123,2.33617-.48607,1.41401-1.4141.00005.00004-3.99928-3.99929-3.99928-3.99929-.27722-.28152-.72505-.37209-1.0896-.21661-.09288-.15956-4.1925,4.14849-4.32522,4.21591-.91895.9295.48421,2.33459,1.4142,1.41404-.00004.00004,2.29293-2.29292,2.29293-2.29292v16.58594c0,.55273.44775,1,1,1Z"/><text x="0" y="79" fill="#000000" font-size="5px" font-weight="bold" font-family="'Helvetica Neue', Helvetica, Arial-Unicode, Arial, Sans-serif">Created by Nur Achmadi Yusuf</text><text x="0" y="84" fill="#000000" font-size="5px" font-weight="bold" font-family="'Helvetica Neue', Helvetica, Arial-Unicode, Arial, Sans-serif">from the Noun Project</text></svg>