<svg xmlns="http://www.w3.org/2000/svg" version="1.1" viewBox="-5.0 -10.0 110.0 135.0">
 <path d="m88.852 88.281-6.9688-10.391c1.1406-0.30078 2.0703-0.98047 2.6797-2.0312 0.67969-1.1797 0.78906-2.4883 0.30859-3.7617-0.39062-1.0312-0.089844-2.1484 0.76172-2.8516 1.0586-0.87109 1.6211-2.0508 1.6211-3.4102 0-1.3594-0.55859-2.5508-1.6211-3.4102-0.85156-0.69922-1.1484-1.8203-0.76172-2.8516 0.48047-1.2812 0.37891-2.5781-0.30859-3.7617-0.67969-1.1797-1.7617-1.9297-3.1094-2.1484-1.0898-0.17969-1.9102-1-2.0898-2.0898-0.21875-1.3516-0.96094-2.4219-2.1484-3.1094-1.1914-0.69141-2.4883-0.78906-3.7617-0.30859-1.0312 0.39062-2.1484 0.089844-2.8516-0.76172-0.87109-1.0586-2.0508-1.6211-3.4102-1.6211-0.62109 0-1.1914 0.12891-1.7305 0.35156-1.2383-3.9297-3.0898-7.9492-5.5117-11.961l-16.859-27.895c-0.87109-1.4414-2.3281-2.2695-4.0195-2.2695-1.6797 0-3.1484 0.82812-4.0195 2.2695l-16.852 27.891c-4.4219 7.3203-6.9492 14.711-7.3008 21.379-0.42188 7.8594 2.0898 14.559 7.4414 19.91 4.5 4.5 10.23 7.3594 16.551 8.2617 1.3711 0.19922 2.7617 0.28906 4.1406 0.28906 3.6602 0 7.3086-0.67969 10.699-1.9883l-4.2109 6.2695c-0.41016 0.62109-0.39844 1.3984 0.03125 2 0.42969 0.60156 1.1797 0.85938 1.8906 0.67188l4.7695-1.3086c0.10937-0.03125 0.17969-0.019531 0.28125 0.039063 0.10156 0.058594 0.14062 0.12109 0.17187 0.21875l1.25 4.7812c0.19141 0.71875 0.78125 1.2305 1.5195 1.3008 0.066406 0.015625 0.125 0.015625 0.1875 0.015625 0.67188 0 1.2695-0.37109 1.5703-0.98047l5.6289-11.469c0.35938 0.16016 0.69141 0.39844 0.96094 0.73047 0.87109 1.0586 2.0508 1.6211 3.4102 1.6211 1.3711 0 2.5508-0.55859 3.4102-1.6211 0.26953-0.32812 0.58984-0.57031 0.96094-0.73047l5.6289 11.469c0.30078 0.60938 0.89844 0.98047 1.5703 0.98047 0.058593 0 0.12109 0 0.17969-0.011719 0.73828-0.070312 1.3281-0.58984 1.5195-1.3008l1.25-4.7812c0.03125-0.10938 0.070312-0.17188 0.17187-0.23047 0.10156-0.058593 0.17188-0.070312 0.28125-0.039062l4.7695 1.3086c0.71875 0.19922 1.4609-0.058593 1.8906-0.67187 0.42578-0.58203 0.4375-1.375 0.027343-1.9922zm-69.18-14.152c-13.18-13.18-4.2891-31.66 0.14062-38.988l16.859-27.898c0.53125-0.87891 1.3906-1.3594 2.4102-1.3594s1.8789 0.48047 2.4102 1.3594l16.859 27.898c2.4688 4.0898 4.3203 8.1797 5.5195 12.172-0.03125 0.03125-0.058594 0.050781-0.089844 0.078125-0.69922 0.85156-1.8203 1.1484-2.8516 0.76172-1.2812-0.48047-2.5781-0.37891-3.7617 0.30859-1.1797 0.67969-1.9297 1.7617-2.1484 3.1094-0.17969 1.0898-1 1.9102-2.0898 2.0898-1.3516 0.21875-2.4219 0.96094-3.1094 2.1484-0.67969 1.1797-0.78906 2.4883-0.30859 3.7617 0.39062 1.0312 0.089843 2.1484-0.76172 2.8516-1.0586 0.87109-1.6211 2.0508-1.6211 3.4102s0.55859 2.5508 1.6211 3.4102c0.85156 0.69922 1.1484 1.8203 0.76172 2.8516-0.48047 1.2812-0.37891 2.5781 0.30859 3.7617 0.60938 1.0508 1.5391 1.7305 2.6797 2.0312l-0.78906 1.1797c-10.539 5.4336-23.68 3.4219-32.039-4.9375zm35.977 19.762-1.1602-4.4609c-0.14844-0.58984-0.51953-1.0703-1.0508-1.3789-0.53125-0.30859-1.1289-0.37891-1.7188-0.21875l-4.4492 1.2188 6.9688-10.398c0.39844 0.37109 0.67188 0.85938 0.76953 1.4414 0.21875 1.3516 0.96094 2.4219 2.1484 3.1094 1.1211 0.64844 2.3516 0.76172 3.5586 0.35938zm13.5-10.812c-0.5 0.62109-1.1602 0.92969-1.9609 0.92969s-1.4609-0.30859-1.9609-0.92969c-0.85937-1.0508-2.1016-1.6211-3.3789-1.6211-0.53125 0-1.0586 0.10156-1.5898 0.28906-0.75 0.28125-1.4688 0.21875-2.1602-0.17969-0.69141-0.39844-1.1094-1-1.2305-1.7891-0.30859-1.8984-1.7383-3.3203-3.6406-3.6289-0.78906-0.12891-1.3906-0.53906-1.7891-1.2305-0.39844-0.69141-0.46094-1.4219-0.17969-2.1602 0.67969-1.8008 0.16016-3.75-1.3281-4.9688-0.60938-0.5-0.92969-1.1602-0.92969-1.9609s0.30859-1.4609 0.92969-1.9609c1.4883-1.2188 2.0117-3.1719 1.3281-4.9688-0.28125-0.75-0.21875-1.4688 0.17969-2.1602 0.39844-0.69141 1-1.1094 1.7891-1.2305 1.8984-0.30859 3.3203-1.7383 3.6289-3.6406 0.12891-0.78906 0.53906-1.3906 1.2305-1.7891 0.69141-0.39844 1.4219-0.46094 2.1602-0.17969 1.8008 0.67969 3.75 0.16016 4.9688-1.3281 0.51172-0.62109 1.1719-0.92969 1.9609-0.92969 0.80078 0 1.4609 0.30859 1.9609 0.92969 1.2188 1.4883 3.1719 2.0117 4.9688 1.3281 0.75-0.28125 1.4688-0.21875 2.1602 0.17969s1.1094 1 1.2305 1.7891c0.30859 1.8984 1.7383 3.3203 3.6406 3.6289 0.78906 0.12891 1.3906 0.53906 1.7891 1.2305 0.39844 0.69141 0.46094 1.4219 0.17969 2.1602-0.67969 1.8008-0.16016 3.75 1.3281 4.9688 0.62109 0.5 0.92969 1.1719 0.92969 1.9609 0 0.80078-0.30859 1.4609-0.92969 1.9609-1.4883 1.2188-2.0117 3.1719-1.3281 4.9688 0.28125 0.75 0.21875 1.4688-0.17969 2.1602-0.39844 0.69141-1 1.1094-1.7891 1.2305-1.8984 0.30859-3.3203 1.7383-3.6406 3.6406-0.12891 0.78906-0.53906 1.3906-1.2305 1.7891-0.69141 0.39844-1.4219 0.46094-2.1602 0.17969-1.7852-0.66797-3.7344-0.14453-4.957 1.332zm13.512 4.75c-0.58984-0.16016-1.1914-0.089844-1.7188 0.21875-0.53125 0.30859-0.89062 0.78125-1.0508 1.3789l-1.1602 4.4609-5.0703-10.328c1.2109 0.39844 2.4414 0.28906 3.5586-0.35938 1.1797-0.67969 1.9297-1.7617 2.1484-3.1094 0.089843-0.57031 0.37109-1.0703 0.76953-1.4414l6.9688 10.398zm-2.3203-22c0-7.25-5.8984-13.148-13.148-13.148s-13.148 5.8984-13.148 13.148 5.8984 13.148 13.148 13.148c7.25 0.011719 13.148-5.8984 13.148-13.148zm-13.148 11.281c-6.2188 0-11.281-5.0586-11.281-11.281 0-6.2188 5.0586-11.281 11.281-11.281 6.2188 0 11.281 5.0586 11.281 11.281-0.011718 6.2227-5.0742 11.281-11.281 11.281zm6.8398-16.711c0.35938 0.37891 0.33984 0.96875-0.03125 1.3281l-10.039 9.5703c-0.17969 0.17188-0.41016 0.26172-0.64844 0.26172h-0.070312c-0.26172-0.019532-0.51172-0.14844-0.67188-0.35156l-3.7812-4.7812c-0.32031-0.41016-0.25-1 0.14844-1.3203 0.41016-0.32031 1-0.25 1.3203 0.14844l3.1484 3.9688 9.2891-8.8594c0.375-0.35156 0.97656-0.34375 1.3359 0.035157z"/>
<text x="0.0" y="117.5" font-size="5.0" font-weight="bold" font-family="Arbeit Regular, Helvetica, Arial-Unicode, Arial, Sans-serif" fill="#000000">Created by Omah Icon</text><text x="0.0" y="122.5" font-size="5.0" font-weight="bold" font-family="Arbeit Regular, Helvetica, Arial-Unicode, Arial, Sans-serif" fill="#000000">from Noun Project</text></svg>