<svg xmlns="http://www.w3.org/2000/svg" version="1.1" viewBox="-5.0 -10.0 110.0 135.0">
 <path d="m43.184 87.5c-2.6016 0-5.125-0.50781-7.5039-1.5156-2.2969-0.97266-4.3594-2.3633-6.1289-4.1328-1.7734-1.7734-3.1602-3.832-4.1328-6.1289-1.0078-2.3789-1.5156-4.9023-1.5156-7.5039 0-3.3281 0.86328-6.6094 2.4961-9.4922 1.4766-2.6016 3.5508-4.8398 6.0234-6.5156l0.003906-28.945c0-2.875 1.1172-5.582 3.1523-7.6133s4.7344-3.1523 7.6133-3.1523c2.875 0 5.582 1.1172 7.6133 3.1523 2.0312 2.0312 3.1523 4.7344 3.1523 7.6133v28.945c2.4805 1.6719 4.5547 3.9102 6.0234 6.5156 1.6328 2.8828 2.4961 6.1641 2.4961 9.4922 0 2.6016-0.50781 5.125-1.5156 7.5039-0.97266 2.2969-2.3633 4.3594-4.1328 6.1289-1.7656 1.7695-3.832 3.1602-6.1289 4.1328-2.3867 1.0078-4.9141 1.5156-7.5156 1.5156zm0-72.656c-4.6445 0-8.4219 3.7812-8.4219 8.4219v29.586c0 0.40625-0.21094 0.78125-0.55078 0.99219-4.9922 3.1211-7.9688 8.4961-7.9688 14.375 0 9.3398 7.5977 16.945 16.945 16.945 9.3398 0 16.945-7.6016 16.945-16.945 0-5.8789-2.9766-11.25-7.9688-14.375-0.34375-0.21484-0.55078-0.58984-0.55078-0.99219l-0.007812-29.586c0-4.6406-3.7773-8.4219-8.4219-8.4219z"/>
 <path d="m43.184 80.66c-3.3242 0-6.4492-1.293-8.7969-3.6406-2.3477-2.3477-3.6406-5.4727-3.6406-8.7969 0-3.3242 1.293-6.4492 3.6406-8.7969 2.3477-2.3477 5.4727-3.6406 8.7969-3.6406 3.3242 0 6.4492 1.293 8.7969 3.6406 2.3477 2.3477 3.6406 5.4727 3.6406 8.7969 0 3.3242-1.293 6.4492-3.6406 8.7969-2.3477 2.3398-5.4727 3.6406-8.7969 3.6406zm0-22.543c-5.5664 0-10.098 4.5312-10.098 10.098s4.5312 10.098 10.098 10.098 10.098-4.5312 10.098-10.098-4.5273-10.098-10.098-10.098z"/>
 <path d="m43.184 58.117c-0.64844 0-1.1719-0.52344-1.1719-1.1719v-34.215c0-0.64844 0.52344-1.1719 1.1719-1.1719 0.64844 0 1.1719 0.52344 1.1719 1.1719v34.215c0 0.64844-0.52344 1.1719-1.1719 1.1719z"/>
 <path d="m38.68 23.902h-5.0898c-0.64844 0-1.1719-0.52344-1.1719-1.1719 0-0.64844 0.52344-1.1719 1.1719-1.1719h5.0859c0.64844 0 1.1719 0.52344 1.1719 1.1719 0 0.64844-0.51953 1.1719-1.168 1.1719z"/>
 <path d="m36.137 27.676h-2.543c-0.64844 0-1.1719-0.52344-1.1719-1.1719 0-0.64844 0.52344-1.1719 1.1719-1.1719h2.543c0.64844 0 1.1719 0.52344 1.1719 1.1719 0 0.64844-0.52734 1.1719-1.1719 1.1719z"/>
 <path d="m36.137 31.449h-2.543c-0.64844 0-1.1719-0.52344-1.1719-1.1719 0-0.64844 0.52344-1.1719 1.1719-1.1719h2.543c0.64844 0 1.1719 0.52344 1.1719 1.1719 0 0.65234-0.52734 1.1719-1.1719 1.1719z"/>
 <path d="m36.137 35.219h-2.543c-0.64844 0-1.1719-0.52344-1.1719-1.1719s0.52344-1.1719 1.1719-1.1719h2.543c0.64844 0 1.1719 0.52344 1.1719 1.1719s-0.52734 1.1719-1.1719 1.1719z"/>
 <path d="m38.68 38.992h-5.0898c-0.64844 0-1.1719-0.52344-1.1719-1.1719 0-0.64844 0.52344-1.1719 1.1719-1.1719h5.0859c0.64844 0 1.1719 0.52344 1.1719 1.1719 0 0.65234-0.51953 1.1719-1.168 1.1719z"/>
 <path d="m36.137 42.77h-2.543c-0.64844 0-1.1719-0.52344-1.1719-1.1719 0-0.64844 0.52344-1.1719 1.1719-1.1719h2.543c0.64844 0 1.1719 0.52344 1.1719 1.1719 0 0.64844-0.52734 1.1719-1.1719 1.1719z"/>
 <path d="m36.137 46.543h-2.543c-0.64844 0-1.1719-0.52344-1.1719-1.1719 0-0.64844 0.52344-1.1719 1.1719-1.1719h2.543c0.64844 0 1.1719 0.52344 1.1719 1.1719 0 0.64844-0.52734 1.1719-1.1719 1.1719z"/>
 <path d="m36.137 50.316h-2.543c-0.64844 0-1.1719-0.52344-1.1719-1.1719 0-0.64844 0.52344-1.1719 1.1719-1.1719h2.543c0.64844 0 1.1719 0.52344 1.1719 1.1719 0 0.65234-0.52734 1.1719-1.1719 1.1719z"/>
 <path d="m38.68 54.094h-5.0898c-0.64844 0-1.1719-0.52344-1.1719-1.1719s0.52344-1.1719 1.1719-1.1719h5.0859c0.64844 0 1.1719 0.52344 1.1719 1.1719s-0.51953 1.1719-1.168 1.1719z"/>
 <path d="m65.258 56.828c-0.35547 0-0.69531-0.16016-0.91797-0.4375l-4.1758-5.2383c-0.40625-0.50781-0.32031-1.2461 0.1875-1.6445 0.50781-0.40625 1.2461-0.32031 1.6445 0.1875l3.2617 4.0938 3.2617-4.0938c0.40625-0.50781 1.1406-0.58984 1.6445-0.1875 0.50391 0.40625 0.58984 1.1406 0.1875 1.6445l-4.1758 5.2383c-0.22266 0.26953-0.55859 0.4375-0.91797 0.4375z"/>
 <path d="m65.258 56.828c-0.64844 0-1.1719-0.52344-1.1719-1.1719v-24.492c0-0.64844 0.52344-1.1719 1.1719-1.1719 0.64844 0 1.1719 0.52344 1.1719 1.1719v24.492c0 0.64062-0.52734 1.1719-1.1719 1.1719z"/>
 <path d="m66.578 26.406c-0.25391 0-0.51172-0.082031-0.72656-0.25391-0.50781-0.40625-0.58984-1.1406-0.1875-1.6445l4.1758-5.2383c0.22266-0.27734 0.5625-0.4375 0.91797-0.4375 0.35547 0 0.69531 0.16016 0.91797 0.4375l4.1758 5.2383c0.40625 0.50781 0.32031 1.2461-0.1875 1.6445-0.50781 0.40234-1.2461 0.32031-1.6445-0.1875l-3.2695-4.0898-3.2617 4.0938c-0.22656 0.28516-0.57031 0.4375-0.91016 0.4375z"/>
 <path d="m70.75 45.66c-0.64844 0-1.1719-0.52344-1.1719-1.1719v-24.492c0-0.64844 0.52344-1.1719 1.1719-1.1719s1.1719 0.52344 1.1719 1.1719v24.492c0 0.64453-0.51953 1.1719-1.1719 1.1719z"/>
<text x="0.0" y="117.5" font-size="5.0" font-weight="bold" font-family="Arbeit Regular, Helvetica, Arial-Unicode, Arial, Sans-serif" fill="#000000">Created by Iconbunny</text><text x="0.0" y="122.5" font-size="5.0" font-weight="bold" font-family="Arbeit Regular, Helvetica, Arial-Unicode, Arial, Sans-serif" fill="#000000">from Noun Project</text></svg>