<svg xmlns="http://www.w3.org/2000/svg" xmlns:xlink="http://www.w3.org/1999/xlink" version="1.1" x="0px" y="0px" viewBox="0 0 48 60" enable-background="new 0 0 48 48" xml:space="preserve"><path d="M43.055,13.001c-0.009-0.016-0.025-0.025-0.036-0.041c-1.923-3.299-4.677-6.054-7.978-7.977  C35.027,4.972,35.018,4.957,35,4.947c-0.016-0.01-0.034-0.01-0.053-0.019c-3.227-1.859-6.963-2.93-10.946-2.93  c-3.984,0-7.72,1.07-10.947,2.929c-0.018,0.009-0.037,0.009-0.053,0.019c-0.017,0.009-0.026,0.024-0.041,0.036  C9.66,6.905,6.906,9.66,4.983,12.96C4.972,12.976,4.958,12.984,4.948,13c-0.01,0.017-0.011,0.034-0.018,0.05  C3.071,16.277,2,20.016,2,24c0,3.985,1.07,7.724,2.931,10.95c0.007,0.018,0.008,0.034,0.018,0.051  c0.007,0.012,0.02,0.017,0.027,0.027C8.79,41.583,15.887,46.001,24,46.001s15.209-4.418,19.023-10.972  c0.008-0.012,0.021-0.017,0.028-0.028c0.01-0.018,0.01-0.035,0.019-0.053C44.93,31.722,46,27.985,46,24  c0-3.984-1.07-7.721-2.93-10.948C43.064,13.036,43.064,13.018,43.055,13.001z M24.002,45.001c-7.579,0-14.213-4.049-17.906-10.084  l5.257-3.035c0.239-0.138,0.321-0.443,0.184-0.683c-0.14-0.239-0.445-0.321-0.684-0.183l-5.276,3.046  c-1.563-2.853-2.467-6.106-2.549-9.562h2.776c0.276,0,0.5-0.224,0.5-0.5c0-0.275-0.224-0.5-0.5-0.5H3.028  c0.082-3.455,0.985-6.709,2.549-9.561l5.276,3.047c0.079,0.045,0.165,0.066,0.25,0.066c0.174,0,0.342-0.089,0.435-0.25  c0.138-0.238,0.056-0.545-0.184-0.683l-5.257-3.035c1.744-2.85,4.142-5.247,6.99-6.99l1.384,2.396  c0.094,0.161,0.262,0.25,0.435,0.25c0.085,0,0.171-0.021,0.25-0.067c0.238-0.138,0.32-0.443,0.183-0.683l-1.395-2.417  c2.851-1.563,6.104-2.467,9.561-2.549v6.08c0,0.275,0.224,0.5,0.5,0.5s0.5-0.225,0.5-0.5v-6.08c3.455,0.082,6.709,0.985,9.562,2.549  l-1.396,2.417c-0.138,0.239-0.056,0.545,0.183,0.683c0.079,0.045,0.165,0.067,0.25,0.067c0.174,0,0.342-0.09,0.434-0.25l1.385-2.396  c2.85,1.744,5.247,4.142,6.99,6.99l-5.256,3.035c-0.24,0.138-0.321,0.444-0.184,0.683c0.094,0.161,0.262,0.25,0.434,0.25  c0.086,0,0.172-0.021,0.25-0.066l5.276-3.046c1.563,2.851,2.468,6.104,2.55,9.561h-2.777c-0.276,0-0.5,0.225-0.5,0.5  c0,0.276,0.224,0.5,0.5,0.5h2.777c-0.082,3.456-0.986,6.71-2.55,9.562l-5.276-3.046c-0.238-0.14-0.545-0.058-0.683,0.183  c-0.138,0.239-0.056,0.545,0.183,0.684l5.258,3.035C38.215,40.951,31.58,45.001,24.002,45.001z"/><path d="M24,19.898c-0.656,0-1.309,0.161-1.889,0.463L8.658,18.747c-0.021-0.002-0.083-0.006-0.104-0.006  c-0.435,0-0.802,0.326-0.854,0.758c-0.044,0.371,0.152,0.727,0.492,0.883l12.284,5.715c0.738,1.242,2.075,2.006,3.529,2.006  c0.675,0,1.347-0.17,1.944-0.493c1.989-1.074,2.735-3.567,1.661-5.559C26.895,20.725,25.511,19.898,24,19.898z M25.475,26.731  c-0.452,0.244-0.96,0.373-1.47,0.373c-1.143,0-2.189-0.625-2.733-1.629c-0.051-0.096-0.131-0.171-0.229-0.217L9.405,19.844  l12.745,1.529c0.098,0.011,0.288-0.053,0.38-0.103c0.452-0.244,0.96-0.373,1.47-0.373c1.143,0,2.19,0.625,2.732,1.629  C27.544,24.033,26.979,25.919,25.475,26.731z"/><path d="M30.585,34.751c-1.349,0-2.444,1.096-2.444,2.442c0,1.349,1.096,2.444,2.444,2.444c1.347,0,2.442-1.096,2.442-2.444  C33.027,35.847,31.932,34.751,30.585,34.751z M30.585,38.638c-0.796,0-1.444-0.648-1.444-1.444s0.648-1.442,1.444-1.442  s1.442,0.646,1.442,1.442S31.381,38.638,30.585,38.638z"/><path d="M24.002,34.751c-1.347,0-2.443,1.096-2.443,2.442c0,1.349,1.097,2.444,2.443,2.444c1.348,0,2.443-1.096,2.443-2.444  C26.445,35.847,25.35,34.751,24.002,34.751z M24.002,38.638c-0.796,0-1.443-0.648-1.443-1.444s0.647-1.442,1.443-1.442  s1.444,0.646,1.444,1.442S24.798,38.638,24.002,38.638z"/><path d="M17.42,34.751c-1.348,0-2.444,1.096-2.444,2.442c0,1.349,1.097,2.444,2.444,2.444s2.444-1.096,2.444-2.444  C19.864,35.847,18.768,34.751,17.42,34.751z M17.42,38.638c-0.796,0-1.444-0.648-1.444-1.444s0.648-1.442,1.444-1.442  s1.444,0.646,1.444,1.442S18.216,38.638,17.42,38.638z"/><text x="0" y="63" fill="#000000" font-size="5px" font-weight="bold" font-family="'Helvetica Neue', Helvetica, Arial-Unicode, Arial, Sans-serif">Created by Kieu Thi Kim Cuong</text><text x="0" y="68" fill="#000000" font-size="5px" font-weight="bold" font-family="'Helvetica Neue', Helvetica, Arial-Unicode, Arial, Sans-serif">from the Noun Project</text></svg>